<svg width="268" height="244" viewBox="0 0 268 244" fill="none" xmlns="http://www.w3.org/2000/svg">
<path d="M132.434 219C133.245 219 134.056 218.797 134.867 218.392C135.679 217.986 136.287 217.581 136.693 217.175L236.459 117.408C238.892 114.975 240.669 112.237 241.788 109.196C242.899 106.154 243.455 103.112 243.455 100.071C243.455 96.8264 242.899 93.732 241.788 90.7877C240.669 87.8514 238.892 85.268 236.459 83.0375L184.751 31.3292C182.52 28.8958 179.937 27.1195 177.001 26.0002C174.056 24.8889 170.962 24.3333 167.717 24.3333C164.676 24.3333 161.634 24.8889 158.592 26.0002C155.551 27.1195 152.813 28.8958 150.38 31.3292L147.034 34.675L169.542 57.4875C172.584 60.3264 174.815 63.5708 176.234 67.2208C177.654 70.8708 178.363 74.7236 178.363 78.7792C178.363 87.2958 175.476 94.4417 169.701 100.217C163.917 106 156.767 108.892 148.251 108.892C144.195 108.892 140.294 108.182 136.546 106.762C132.791 105.343 129.494 103.214 126.655 100.375L103.842 77.8667L50.6133 131.096C50.005 131.704 49.5467 132.365 49.2385 133.079C48.9384 133.785 48.7883 134.543 48.7883 135.354C48.7883 136.976 49.3967 138.444 50.6133 139.758C51.83 141.081 53.2494 141.742 54.8717 141.742C55.6828 141.742 56.4939 141.539 57.305 141.133C58.1161 140.728 58.7244 140.322 59.13 139.917L100.497 98.55L117.53 115.583L76.4675 156.95C75.8592 157.558 75.4009 158.215 75.0927 158.921C74.7926 159.635 74.6425 160.397 74.6425 161.208C74.6425 162.831 75.2508 164.25 76.4675 165.467C77.6842 166.683 79.1036 167.292 80.7258 167.292C81.5369 167.292 82.3481 167.089 83.1592 166.683C83.9703 166.278 84.5786 165.872 84.9842 165.467L126.351 124.404L143.384 141.437L102.322 182.804C101.713 183.21 101.259 183.818 100.959 184.629C100.651 185.44 100.497 186.251 100.497 187.062C100.497 188.685 101.105 190.104 102.322 191.321C103.538 192.537 104.958 193.146 106.58 193.146C107.391 193.146 108.154 192.992 108.867 192.683C109.573 192.383 110.23 191.929 110.838 191.321L152.205 150.258L169.238 167.292L127.872 208.658C127.263 209.267 126.809 209.924 126.509 210.629C126.201 211.343 126.047 212.106 126.047 212.917C126.047 214.539 126.708 215.958 128.03 217.175C129.344 218.392 130.812 219 132.434 219V219ZM132.13 243.333C124.627 243.333 117.988 240.847 112.213 235.875C106.43 230.911 103.031 224.678 102.017 217.175C95.1231 216.161 89.3439 213.322 84.68 208.658C80.0161 203.994 77.1772 198.215 76.1633 191.321C69.2689 190.307 63.5424 187.419 58.984 182.658C54.4174 177.889 51.6272 172.158 50.6133 165.467C42.9078 164.453 36.6217 161.107 31.755 155.429C26.8883 149.751 24.455 143.06 24.455 135.354C24.455 131.299 25.2174 127.393 26.7423 123.638C28.2591 119.89 30.4369 116.597 33.2758 113.758L103.842 43.4958L143.688 83.3417C144.094 83.95 144.702 84.4042 145.513 84.7043C146.324 85.0125 147.136 85.1667 147.947 85.1667C149.772 85.1667 151.292 84.6111 152.509 83.4998C153.726 82.3805 154.334 80.9083 154.334 79.0833C154.334 78.2722 154.184 77.4611 153.884 76.65C153.576 75.8389 153.117 75.2305 152.509 74.825L109.013 31.3292C106.783 28.8958 104.195 27.1195 101.251 26.0002C98.3148 24.8889 95.2244 24.3333 91.98 24.3333C88.9383 24.3333 85.8967 24.8889 82.855 26.0002C79.8133 27.1195 77.0758 28.8958 74.6425 31.3292L31.755 74.5208C29.93 76.3458 28.4092 78.475 27.1925 80.9083C25.9758 83.3417 25.1647 85.775 24.7592 88.2083C24.3536 90.6417 24.3536 93.1237 24.7592 95.6543C25.1647 98.1931 25.9758 100.578 27.1925 102.808L9.55083 120.45C6.10361 115.786 3.56889 110.664 1.94667 105.083C0.324444 99.5112 -0.283889 93.8861 0.121667 88.2083C0.527222 82.5306 1.94667 77.0028 4.38 71.6252C6.81333 66.2556 10.1592 61.4417 14.4175 57.1833L57.305 14.2958C62.1717 9.63194 67.598 6.08333 73.584 3.65C79.5619 1.21667 85.6939 0 91.98 0C98.2661 0 104.398 1.21667 110.376 3.65C116.362 6.08333 121.687 9.63194 126.351 14.2958L129.697 17.6417L133.042 14.2958C137.909 9.63194 143.331 6.08333 149.309 3.65C155.295 1.21667 161.431 0 167.717 0C174.004 0 180.14 1.21667 186.126 3.65C192.104 6.08333 197.424 9.63194 202.088 14.2958L253.492 65.7C258.156 70.3639 261.705 75.7375 264.138 81.8208C266.572 87.9042 267.788 94.0889 267.788 100.375C267.788 106.661 266.572 112.793 264.138 118.771C261.705 124.757 258.156 130.082 253.492 134.746L153.726 234.208C150.887 237.047 147.59 239.278 143.834 240.9C140.087 242.522 136.186 243.333 132.13 243.333Z" fill="#545454" fill-opacity="0.1"/>
</svg>
