<svg width="193" height="193" viewBox="0 0 193 193" fill="none" xmlns="http://www.w3.org/2000/svg">
<path d="M21.7125 135.703C15.6812 123.641 12.0625 110.372 12.0625 96.5C12.0625 50.0594 50.0594 12.0625 96.5 12.0625V24.125C56.6938 24.125 24.125 56.6938 24.125 96.5C24.125 108.562 27.1406 119.419 32.5688 129.672L21.7125 135.703V135.703ZM168.875 96.5C168.875 136.306 136.306 168.875 96.5 168.875C79.0094 168.875 62.725 162.844 50.0594 151.988L84.4375 117.609L75.9938 108.562L36.7906 147.766C34.3781 150.178 34.3781 153.797 36.7906 156.209C52.4719 171.891 74.1844 180.938 96.5 180.938C142.941 180.938 180.938 142.941 180.938 96.5H168.875Z" fill="#545454" fill-opacity="0.1"/>
<path d="M108.562 150.781C107.959 150.781 106.753 150.781 106.15 150.178C104.34 149.575 102.531 147.766 102.531 145.353L98.3091 115.197L110.372 113.387L112.784 133.291L126.053 123.037V90.4688C126.053 88.6594 126.656 87.4531 127.862 86.2469L147.162 66.9469C152.59 61.5188 156.209 53.6781 156.209 45.8375V36.1875H147.162C139.322 36.1875 131.481 39.2031 126.053 45.2344L106.753 64.5344C105.547 65.7406 104.34 66.3438 102.531 66.3438H69.3591L59.1059 79.6125L79.0091 82.025L77.1997 94.0875L47.0434 89.8656C44.6309 89.8656 42.8216 88.0563 42.2184 86.2469C41.6153 84.4375 41.6153 82.025 42.8216 80.2156L60.9153 56.0906C62.7247 54.8844 64.5341 54.2812 66.3434 54.2812H100.118L118.212 36.1875C126.053 28.3469 136.909 24.125 147.765 24.125H156.812C163.447 24.125 168.875 29.5531 168.875 36.1875V45.2344C168.875 56.6937 164.653 66.9469 156.812 74.7875L138.718 92.8812V126.656C138.718 128.466 138.115 130.275 136.306 131.481L112.181 149.575C110.975 150.178 109.768 150.781 108.562 150.781Z" fill="#545454" fill-opacity="0.1"/>
</svg>
