<svg width="223" height="223" viewBox="0 0 223 223" fill="none" xmlns="http://www.w3.org/2000/svg">
<path d="M124.643 172.695L172.695 124.643M98.3617 124.643L50.3099 172.695M124.643 98.3616L172.695 50.3098M50.3099 98.3616L98.3617 50.3098M55.7502 37.1667C55.7502 42.0953 53.7923 46.8221 50.3072 50.3071C46.8222 53.7922 42.0954 55.75 37.1668 55.75C32.2382 55.75 27.5115 53.7922 24.0264 50.3071C20.5414 46.8221 18.5835 42.0953 18.5835 37.1667C18.5835 32.2381 20.5414 27.5114 24.0264 24.0263C27.5115 20.5413 32.2382 18.5834 37.1668 18.5834C42.0954 18.5834 46.8222 20.5413 50.3072 24.0263C53.7923 27.5114 55.7502 32.2381 55.7502 37.1667V37.1667ZM130.083 37.1667C130.083 42.0953 128.126 46.8221 124.641 50.3071C121.156 53.7922 116.429 55.75 111.5 55.75C106.572 55.75 101.845 53.7922 98.3598 50.3071C94.8747 46.8221 92.9168 42.0953 92.9168 37.1667C92.9168 32.2381 94.8747 27.5114 98.3598 24.0263C101.845 20.5413 106.572 18.5834 111.5 18.5834C116.429 18.5834 121.156 20.5413 124.641 24.0263C128.126 27.5114 130.083 32.2381 130.083 37.1667V37.1667ZM204.417 37.1667C204.417 42.0953 202.459 46.8221 198.974 50.3071C195.489 53.7922 190.762 55.75 185.833 55.75C180.905 55.75 176.178 53.7922 172.693 50.3071C169.208 46.8221 167.25 42.0953 167.25 37.1667C167.25 32.2381 169.208 27.5114 172.693 24.0263C176.178 20.5413 180.905 18.5834 185.833 18.5834C190.762 18.5834 195.489 20.5413 198.974 24.0263C202.459 27.5114 204.417 32.2381 204.417 37.1667V37.1667ZM204.417 111.5C204.417 116.429 202.459 121.155 198.974 124.64C195.489 128.125 190.762 130.083 185.833 130.083C180.905 130.083 176.178 128.125 172.693 124.64C169.208 121.155 167.25 116.429 167.25 111.5C167.25 106.571 169.208 101.845 172.693 98.3596C176.178 94.8746 180.905 92.9167 185.833 92.9167C190.762 92.9167 195.489 94.8746 198.974 98.3596C202.459 101.845 204.417 106.571 204.417 111.5ZM204.417 185.833C204.417 190.762 202.459 195.489 198.974 198.974C195.489 202.459 190.762 204.417 185.833 204.417C180.905 204.417 176.178 202.459 172.693 198.974C169.208 195.489 167.25 190.762 167.25 185.833C167.25 180.905 169.208 176.178 172.693 172.693C176.178 169.208 180.905 167.25 185.833 167.25C190.762 167.25 195.489 169.208 198.974 172.693C202.459 176.178 204.417 180.905 204.417 185.833V185.833ZM130.083 185.833C130.083 190.762 128.126 195.489 124.641 198.974C121.156 202.459 116.429 204.417 111.5 204.417C106.572 204.417 101.845 202.459 98.3598 198.974C94.8747 195.489 92.9168 190.762 92.9168 185.833C92.9168 180.905 94.8747 176.178 98.3598 172.693C101.845 169.208 106.572 167.25 111.5 167.25C116.429 167.25 121.156 169.208 124.641 172.693C128.126 176.178 130.083 180.905 130.083 185.833V185.833ZM55.7502 185.833C55.7502 190.762 53.7923 195.489 50.3072 198.974C46.8222 202.459 42.0954 204.417 37.1668 204.417C32.2382 204.417 27.5115 202.459 24.0264 198.974C20.5414 195.489 18.5835 190.762 18.5835 185.833C18.5835 180.905 20.5414 176.178 24.0264 172.693C27.5115 169.208 32.2382 167.25 37.1668 167.25C42.0954 167.25 46.8222 169.208 50.3072 172.693C53.7923 176.178 55.7502 180.905 55.7502 185.833V185.833ZM55.7502 111.5C55.7502 116.429 53.7923 121.155 50.3072 124.64C46.8222 128.125 42.0954 130.083 37.1668 130.083C32.2382 130.083 27.5115 128.125 24.0264 124.64C20.5414 121.155 18.5835 116.429 18.5835 111.5C18.5835 106.571 20.5414 101.845 24.0264 98.3596C27.5115 94.8746 32.2382 92.9167 37.1668 92.9167C42.0954 92.9167 46.8222 94.8746 50.3072 98.3596C53.7923 101.845 55.7502 106.571 55.7502 111.5ZM130.083 111.5C130.083 116.429 128.126 121.155 124.641 124.64C121.156 128.125 116.429 130.083 111.5 130.083C106.572 130.083 101.845 128.125 98.3598 124.64C94.8747 121.155 92.9168 116.429 92.9168 111.5C92.9168 106.571 94.8747 101.845 98.3598 98.3596C101.845 94.8746 106.572 92.9167 111.5 92.9167C116.429 92.9167 121.156 94.8746 124.641 98.3596C128.126 101.845 130.083 106.571 130.083 111.5V111.5Z" stroke="#545454" stroke-opacity="0.1" stroke-width="12" stroke-linecap="round" stroke-linejoin="round"/>
</svg>
