<svg width="45" height="45" viewBox="0 0 45 45" fill="none" xmlns="http://www.w3.org/2000/svg">
<path d="M22.6875 39.375C22.9375 39.375 23.1562 39.3438 23.3438 39.2812C23.5312 39.2188 23.75 39.0625 24 38.8125L39.6094 23.1562C40.1406 22.625 40.5469 22.0387 40.8281 21.3975C41.1094 20.7575 41.25 20.125 41.25 19.5C41.25 18.5937 41.1175 17.7969 40.8525 17.1094C40.5863 16.4219 40.1719 15.7969 39.6094 15.2344L31.6875 7.26562C31.125 6.70312 30.5 6.28875 29.8125 6.0225C29.125 5.7575 28.375 5.625 27.5625 5.625C26.9062 5.625 26.25 5.7575 25.5938 6.0225C24.9375 6.28875 24.3438 6.67188 23.8125 7.17188L32.2031 15.5625C32.6094 15.9688 32.8906 16.4062 33.0469 16.875C33.2031 17.3438 33.2812 17.7969 33.2812 18.2344C33.2812 19.3281 32.9062 20.2262 32.1562 20.9287C31.4062 21.6325 30.5312 21.9844 29.5312 21.9844C29.0625 21.9844 28.5938 21.8825 28.125 21.6788C27.6562 21.4763 27.25 21.2031 26.9062 20.8594L19.875 13.7812L9.42188 24.2344C9.23438 24.4219 9.09375 24.625 9 24.8438C8.90625 25.0625 8.85938 25.2969 8.85938 25.5469C8.85938 26.0781 9.03937 26.5231 9.39937 26.8819C9.75812 27.2419 10.2031 27.4219 10.7344 27.4219C11.0469 27.4219 11.3125 27.375 11.5312 27.2812C11.75 27.1875 11.9375 27.0625 12.0938 26.9062L20.7188 18.2344L22.0781 19.5469L13.4062 28.2188C13.2188 28.4062 13.0781 28.6094 12.9844 28.8281C12.8906 29.0469 12.8438 29.2812 12.8438 29.5312C12.8438 30.0312 13.0312 30.4688 13.4062 30.8438C13.7812 31.2188 14.2188 31.4062 14.7188 31.4062C15 31.4062 15.25 31.3594 15.4688 31.2656C15.6875 31.1719 15.8906 31.0313 16.0781 30.8438L24.75 22.2188L26.0625 23.5312L17.3906 32.2031C17.2344 32.3594 17.1094 32.5387 17.0156 32.7412C16.9219 32.945 16.875 33.2031 16.875 33.5156C16.875 34.0469 17.055 34.4919 17.415 34.8506C17.7738 35.2106 18.2188 35.3906 18.75 35.3906C19 35.3906 19.2344 35.3437 19.4531 35.25C19.6719 35.1562 19.875 35.0156 20.0625 34.8281L28.6875 26.1562L30.0469 27.5156L21.375 36.1875C21.1875 36.375 21.0469 36.5856 20.9531 36.8194C20.8594 37.0544 20.8125 37.2812 20.8125 37.5C20.8125 38.0312 20.9925 38.4762 21.3525 38.835C21.7112 39.195 22.1562 39.375 22.6875 39.375ZM6.60938 24.375L19.8281 11.1562L28.2656 19.5C28.4844 19.7187 28.6875 19.8669 28.875 19.9444C29.0625 20.0231 29.2969 20.0625 29.5781 20.0625C30.0781 20.0625 30.5156 19.875 30.8906 19.5C31.2656 19.125 31.4531 18.6875 31.4531 18.1875C31.4531 17.9375 31.4063 17.7031 31.3125 17.4844C31.2188 17.2656 31.0781 17.0625 30.8906 16.875L21.2812 7.26562C20.6562 6.64062 20.0156 6.21125 19.3594 5.9775C18.7031 5.7425 17.9531 5.625 17.1094 5.625C16.4531 5.625 15.7812 5.77312 15.0938 6.06937C14.4062 6.36687 13.8125 6.76562 13.3125 7.26562L5.39062 15.2344C4.92188 15.7031 4.53125 16.2812 4.21875 16.9688C3.90625 17.6562 3.75 18.4062 3.75 19.2188C3.75 19.9688 3.89062 20.6875 4.17187 21.375C4.45312 22.0625 4.85938 22.6562 5.39062 23.1562L6.60938 24.375Z" fill="#3F5493"/>
</svg>
